<svg xmlns="http://www.w3.org/2000/svg" xmlns:xlink="http://www.w3.org/1999/xlink" width="28" height="28" viewBox="0 0 28 28"><defs><path id="sb9ha" d="M1290.848 65.698c-7.636 0-13.848-6.146-13.848-13.7 0-7.552 6.212-13.698 13.848-13.698 7.637 0 13.849 6.146 13.849 13.699s-6.212 13.699-13.85 13.699m0-26.194c-6.964 0-12.63 5.605-12.63 12.495 0 6.89 5.666 12.495 12.63 12.495 6.966 0 12.632-5.605 12.632-12.495 0-6.89-5.666-12.495-12.631-12.495"/><path id="sb9hb" d="M1290.847 65.698c-4.559 0-8.267-6.146-8.267-13.7 0-7.552 3.708-13.698 8.267-13.698 4.558 0 8.265 6.146 8.265 13.699s-3.707 13.699-8.265 13.699m-.005-26.194c-3.884 0-7.045 5.605-7.045 12.495 0 6.89 3.16 12.495 7.045 12.495 3.883 0 7.043-5.605 7.043-12.495 0-6.89-3.16-12.495-7.043-12.495"/><path id="sb9hc" d="M1290.849 65.698a.605.605 0 0 1-.609-.602V38.902c0-.332.273-.602.609-.602 7.636 0 13.849 6.146 13.849 13.699s-6.213 13.699-13.85 13.699m.61-26.18V64.48c6.683-.315 12.022-5.792 12.022-12.481 0-6.688-5.34-12.165-12.023-12.48"/><path id="sb9hd" d="M1303.224 57.218h-24.756a.608.608 0 0 1-.57-.39 13.527 13.527 0 0 1-.898-4.829c0-1.64.303-3.264.902-4.83a.608.608 0 0 1 .57-.389h24.752a.61.61 0 0 1 .57.389c.599 1.57.903 3.196.903 4.83 0 1.636-.304 3.26-.903 4.83a.61.61 0 0 1-.57.389m-24.327-1.205h23.9c.452-1.31.682-2.659.682-4.014 0-1.354-.23-2.703-.684-4.015H1278.9a12.237 12.237 0 0 0-.682 4.015c0 1.356.228 2.705.68 4.014"/></defs><g><g transform="translate(-1277 -38)"><g><use fill="#007397" xlink:href="#sb9ha"/></g><g><use fill="#007397" xlink:href="#sb9hb"/></g><g><use fill="#007397" xlink:href="#sb9hc"/></g><g><use fill="#007397" xlink:href="#sb9hd"/></g></g></g></svg>